<svg xmlns="http://www.w3.org/2000/svg" fill="#000000" version="1.0" x="0px" y="0px" viewBox="0 0 24 24" class="icon icons8-Skull" >
    <g id="surface1">
        <path style=" " d="M 12 2 C 7.128906 2 3 5.484375 3 10 C 3 11.996094 3.851563 13.871094 4 14.1875 L 4 15 C 4 16.644531 5.355469 18 7 18 C 7.554688 18 8 18.445313 8 19 C 8 20.644531 9.355469 22 11 22 L 13 22 C 14.644531 22 16 20.644531 16 19 C 16 18.445313 16.445313 18 17 18 C 18.644531 18 20 16.644531 20 15 L 20 14.1875 C 20.148438 13.871094 21 11.996094 21 10 C 21 5.484375 16.871094 2 12 2 Z M 12 4 C 15.929688 4 19 6.714844 19 10 C 19 11.429688 18.09375 13.59375 18.09375 13.59375 L 18 13.78125 L 18 15 C 18 15.554688 17.554688 16 17 16 C 15.355469 16 14 17.355469 14 19 C 14 19.554688 13.554688 20 13 20 L 11 20 C 10.445313 20 10 19.554688 10 19 C 10 17.355469 8.644531 16 7 16 C 6.445313 16 6 15.554688 6 15 L 6 13.78125 L 5.90625 13.59375 C 5.90625 13.59375 5 11.429688 5 10 C 5 6.714844 8.070313 4 12 4 Z M 9 11 C 7.894531 11 7 11.894531 7 13 C 7 14.105469 7.894531 15 9 15 C 10.105469 15 11 14.105469 11 13 C 11 11.894531 10.105469 11 9 11 Z M 15 11 C 13.894531 11 13 11.894531 13 13 C 13 14.105469 13.894531 15 15 15 C 16.105469 15 17 14.105469 17 13 C 17 11.894531 16.105469 11 15 11 Z M 12 15.1875 C 11.5 15.289063 10.6875 16.613281 10.6875 17.3125 C 10.6875 17.613281 10.988281 17.8125 11.1875 17.8125 C 11.585938 17.8125 11.898438 17.394531 12 17.09375 C 12.101563 17.394531 12.3125 17.8125 12.8125 17.8125 C 13.113281 17.8125 13.3125 17.613281 13.3125 17.3125 C 13.3125 16.613281 12.5 15.289063 12 15.1875 Z ">
        </path>
    </g>
</svg>